<?xml version="1.0" encoding="utf-8"?>
<!-- Generator: Adobe Illustrator 18.1.1, SVG Export Plug-In . SVG Version: 6.00 Build 0)  -->
<svg version="1.1" id="Layer_1" xmlns="http://www.w3.org/2000/svg" xmlns:xlink="http://www.w3.org/1999/xlink" x="0px" y="0px"
	 viewBox="0 0 93.6 72" enable-background="new 0 0 93.6 72" xml:space="preserve">
<path d="M23.8,5.8c4.5,0,7.6,1.4,7.6,6v47.9c0,4.5-3.1,6-7.6,6c-4.7,0-7.8-1.4-7.8-6V11.8C15.9,7.3,19,5.8,23.8,5.8z M35.3,33.4
	L72.7,10c2.7-1.8,4.9-0.4,4.9,3.1v45.5c0,3.5-2.3,4.9-4.9,3.1L35.3,38.1c0,0-1.4-1-1.4-2.3C33.8,34.4,35.3,33.4,35.3,33.4z"/>
</svg>
